<svg version="1.2" xmlns="http://www.w3.org/2000/svg" viewBox="0 0 500 600" width="490" height="588"><style>.a{fill:#fff}.b{fill:#f9f9f9}.c{fill:none;stroke:#000;stroke-width:20}.d{fill:none;stroke:#000;stroke-linecap:round;stroke-linejoin:round;stroke-width:20}</style><path class="a" d="m211.9 548.8q0-6.4-1.2-9-1.2-2.6-4.1-2.6-2.8 0-4 2.6-1.3 2.6-1.3 9 0 6.5 1.3 9.2 1.2 2.7 4 2.7 2.8 0 4.1-2.7 1.2-2.7 1.2-9.2zm8.8 0.1q0 8.5-3.7 13.2-3.6 4.6-10.4 4.6-6.8 0-10.4-4.6-3.7-4.7-3.7-13.2 0-8.5 3.7-13.1 3.6-4.7 10.4-4.7 6.8 0 10.4 4.7 3.7 4.6 3.7 13.1zm7.1 17.1v-8.9h8.2v8.9zm18.1-15v-19.3h21.9v6.5h-14.9v5.3q1-0.2 2-0.4 1-0.1 2.1-0.1 6.3 0 9.8 3.1 3.5 3.1 3.5 8.7 0 5.6-3.8 8.7-3.8 3.2-10.6 3.2-2.9 0-5.7-0.6-2.9-0.6-5.7-1.7v-7q2.8 1.6 5.3 2.4 2.5 0.9 4.7 0.9 3.3 0 5.1-1.6 1.9-1.6 1.9-4.3 0-2.7-1.9-4.2-1.8-1.6-5.1-1.6-1.9 0-4 0.5-2.2 0.5-4.6 1.5zm62.5-19.3l-11.4 16.8 11.9 17.5h-9.2l-8-11.7-8 11.7h-9.2l11.9-17.5-11.5-16.8h9.3l7.5 11.1 7.4-11.1z"/><path class="b" d="m164.9 508l-2.2-6.2h-13.8l-2.2 6.2h-8.9l12.7-34.3h10.6l12.6 34.3zm-9-26.2l-4.7 13.6h9.4zm41.2 0.1v7.4q-1.1-0.5-2.2-0.7-1-0.3-2.1-0.3-3.2 0-4.9 2.1-1.7 2-1.7 5.8v11.8h-8.2v-25.7h8.2v4.3q1.6-2.6 3.6-3.7 2.1-1.2 5-1.2 0.4 0 0.9 0.1 0.4 0 1.4 0.1zm4.8-6.9h8.2v7.3h8.5v5.9h-8.5v10.9q0 1.8 0.7 2.4 0.8 0.7 2.9 0.7h4.2v5.8h-7.1q-4.8 0-6.9-2-2-2-2-6.9v-10.9h-4.1v-5.9h4.1zm52.5 10.3l9.4 10.3q1.2-1.6 1.8-3.6 0.6-2 0.8-4.5h7.1q-0.3 4.2-1.6 7.4-1.3 3.3-3.6 5.7l6.8 7.4h-9.8l-2.2-2.5q-2.4 1.6-5.1 2.4-2.7 0.8-5.6 0.8-6.1 0-9.8-3.2-3.7-3.2-3.7-8.2 0-3.3 1.6-5.9 1.6-2.6 5.4-5-1-1.3-1.5-2.5-0.4-1.2-0.4-2.5 0-3.8 2.9-6 2.9-2.3 7.8-2.3 2 0 4.3 0.4 2.3 0.3 4.7 1v6.4q-2.1-1.1-4.1-1.7-1.9-0.5-3.7-0.5-1.8 0-2.8 0.7-0.9 0.7-0.9 1.9 0 0.8 0.5 1.8 0.6 1 1.7 2.2zm4.4 15.6l-9-9.9q-1.5 1.1-2.2 2.4-0.8 1.4-0.8 3 0 2.7 2 4.5 1.9 1.9 4.6 1.9 1.6 0 2.9-0.5 1.3-0.5 2.5-1.4zm66.1-1.8v7q-2.5 1.3-5.1 2-2.6 0.6-5.5 0.6-8.6 0-13.6-4.8-5-4.8-5-13 0-8.2 5-13 5-4.8 13.6-4.8 2.9 0 5.5 0.7 2.6 0.6 5.1 1.9v7.1q-2.5-1.7-4.9-2.5-2.3-0.8-5-0.8-4.7 0-7.4 3.1-2.7 3-2.7 8.3 0 5.3 2.7 8.4 2.7 3 7.4 3 2.7 0 5-0.8 2.4-0.8 4.9-2.4zm38.1-10.1v16.5q-3.3 1.6-6.9 2.4-3.5 0.8-7.3 0.8-8.6 0-13.6-4.8-5-4.8-5-13 0-8.3 5.1-13 5.1-4.8 14-4.8 3.4 0 6.5 0.7 3.2 0.6 5.9 1.9v7.1q-2.8-1.6-5.7-2.4-2.8-0.9-5.6-0.9-5.3 0-8.2 3-2.8 2.9-2.8 8.4 0 5.5 2.7 8.4 2.8 3 7.8 3 1.4 0 2.6-0.2 1.2-0.2 2.1-0.5v-6.7h-5.4v-5.9z"/><filter id="f0"><feFlood flood-color="#fdfdfd" flood-opacity="1" /><feBlend mode="normal" in2="SourceGraphic"/><feComposite in2="SourceAlpha" operator="in" /></filter><g filter="url(#f0)"><path class="c" d="m53 124c0-45.8 37.2-83 83-83h228c45.8 0 83 37.2 83 83v228c0 45.8-37.2 83-83 83h-228c-45.8 0-83-37.2-83-83z"/><path class="d" d="m269.7 149.3h68.9v69m-68.9 0l68.9-69m-88.6 177.3h-69c-10.9 0-19.7-8.8-19.7-19.7v-68.9c0-10.9 8.8-19.7 19.7-19.7h88.7v88.6c0 10.9-8.8 19.7-19.7 19.7z"/></g></svg>