<svg version="1.2" xmlns="http://www.w3.org/2000/svg" viewBox="0 0 500 600" width="490" height="588"><style>.a{fill:#fff}.b{fill:#f9f9f9}.c{fill:none;stroke:#000;stroke-width:20}.d{fill:none;stroke:#000;stroke-linecap:round;stroke-linejoin:round;stroke-width:20}</style><path class="a" d="m235.4 553.1l-7.3 6.4h15v6.5h-24.9v-6.5l12.6-11q1.6-1.5 2.4-3 0.8-1.4 0.8-3 0-2.4-1.6-3.9-1.6-1.4-4.3-1.4-2 0-4.5 0.8-2.5 0.9-5.3 2.7v-7.6q3-1 5.9-1.5 3-0.5 5.8-0.5 6.1 0 9.5 2.7 3.4 2.7 3.4 7.6 0 2.8-1.4 5.2-1.5 2.4-6.1 6.5zm46.7-21.4l-11.5 16.8 11.9 17.5h-9.2l-8-11.7-7.9 11.7h-9.3l11.9-17.5-11.4-16.8h9.2l7.5 11.1 7.5-11.1z"/><path class="b" d="m88.6 508v-34.3h8.9v13.1h13v-13.1h8.8v34.3h-8.8v-14.5h-13v14.5zm38.9 0v-25.7h8.2v25.7zm0-29v-6.7h8.3v6.7zm33.6 26.4v-1.8q-1.7 2.3-3.8 3.3-2 1.1-4.7 1.1-4.7 0-7.8-3.7-3.1-3.7-3.1-9.4 0-5.8 3.1-9.5 3.1-3.7 7.8-3.7 2.7 0 4.7 1.1 2.1 1 3.8 3.3v-3.8h8.2v23.1q0 6.2-3.9 9.5-3.9 3.2-11.3 3.2-2.4 0-4.7-0.3-2.2-0.4-4.5-1.1v-6.5q2.1 1.3 4.2 1.9 2.1 0.6 4.2 0.6 4 0 5.9-1.8 1.9-1.7 1.9-5.5zm-5.5-17.8q-2.5 0-3.9 1.9-1.4 1.9-1.4 5.4 0 3.5 1.3 5.3 1.4 1.8 4 1.8 2.6 0 4-1.8 1.5-1.9 1.5-5.3 0-3.5-1.5-5.4-1.4-1.9-4-1.9zm47.5 4.7v15.7h-8.3v-2.5-9.4q0-3.4-0.2-4.7-0.1-1.2-0.5-1.8-0.4-0.8-1.3-1.3-0.8-0.4-1.9-0.4-2.5 0-4 2-1.5 1.9-1.5 5.5v12.6h-8.2v-35.7h8.2v13.8q1.9-2.3 4-3.3 2.1-1.1 4.6-1.1 4.4 0 6.7 2.7 2.4 2.7 2.4 7.9zm46.5 22.6l-5.6-6.3h-0.7q-8.5 0-13.2-4.7-4.7-4.6-4.7-13 0-8.3 4.7-13.1 4.7-4.7 13-4.7 8.3 0 12.9 4.7 4.7 4.7 4.7 13.1 0 5.8-2.5 10-2.4 4.1-7.1 6.3l6.9 7.7zm-6.5-35.4q-4.1 0-6.3 3-2.2 3-2.2 8.4 0 5.5 2.2 8.4 2.2 3 6.3 3 4 0 6.3-3 2.2-3 2.2-8.4 0-5.4-2.2-8.4-2.3-3-6.3-3zm23.6 18.5v-15.7h8.3v2.6q0 2.1 0 5.2 0 3.2 0 4.2 0 3.1 0.1 4.5 0.2 1.4 0.6 2 0.5 0.8 1.3 1.2 0.8 0.4 1.9 0.4 2.5 0 4-1.9 1.5-2 1.5-5.5v-12.7h8.2v25.7h-8.2v-3.7q-1.9 2.2-4 3.3-2 1.1-4.5 1.1-4.5 0-6.8-2.8-2.4-2.7-2.4-7.9zm49.6-1.6h-4.3q-2.6 0-3.9 0.9-1.3 0.9-1.3 2.6 0 1.5 1.1 2.4 1 0.9 2.9 0.9 2.3 0 3.9-1.6 1.6-1.7 1.6-4.2zm8.3-3.1v14.6h-8.3v-3.8q-1.7 2.4-3.7 3.5-2.1 1-5.1 1-4 0-6.5-2.3-2.4-2.4-2.4-6.1 0-4.5 3-6.6 3.2-2.1 9.8-2.1h4.9v-0.7q0-1.9-1.6-2.8-1.5-0.9-4.8-0.9-2.6 0-4.9 0.5-2.2 0.5-4.2 1.6v-6.3q2.6-0.6 5.3-0.9 2.7-0.4 5.3-0.4 7 0 10.1 2.8 3.1 2.7 3.1 8.9zm7.6 14.6v-35.7h8.2v35.7zm16.1 0v-25.7h8.2v25.7zm0-29v-6.7h8.3v6.7zm16.8-4h8.2v7.3h8.5v5.9h-8.5v10.9q0 1.8 0.7 2.4 0.8 0.7 2.9 0.7h4.2v5.8h-7.1q-4.8 0-6.9-2-2-2-2-6.9v-10.9h-4.1v-5.9h4.1zm29.8 34l-11.4-26.7h8.2l6.9 17.5 5.9-17.5h8.2l-10.8 28.2q-1.7 4.3-3.8 6-2.2 1.7-5.8 1.7h-4.7v-5.4h2.6q2 0 3-0.7 1-0.6 1.5-2.4z"/><filter id="f0"><feFlood flood-color="#fdfdfd" flood-opacity="1" /><feBlend mode="normal" in2="SourceGraphic"/><feComposite in2="SourceAlpha" operator="in" /></filter><g filter="url(#f0)"><path class="c" d="m53 124c0-45.8 37.2-83 83-83h228c45.8 0 83 37.2 83 83v228c0 45.8-37.2 83-83 83h-228c-45.8 0-83-37.2-83-83z"/><path class="d" d="m269.7 149.3h68.9v69m-68.9 0l68.9-69m-88.6 177.3h-69c-10.9 0-19.7-8.8-19.7-19.7v-68.9c0-10.9 8.8-19.7 19.7-19.7h88.7v88.6c0 10.9-8.8 19.7-19.7 19.7z"/></g></svg>