<svg version="1.2" xmlns="http://www.w3.org/2000/svg" viewBox="0 0 500 600" width="490" height="588"><style>.a{fill:#fff}.b{fill:none;stroke:#000;stroke-width:20}.c{fill:none;stroke:#000;stroke-linecap:round;stroke-linejoin:round;stroke-width:20}</style><path class="a" d="m235.4 553.1l-7.3 6.4h15v6.5h-24.9v-6.5l12.6-11q1.6-1.5 2.4-3 0.8-1.4 0.8-3 0-2.4-1.6-3.9-1.6-1.4-4.3-1.4-2 0-4.5 0.8-2.5 0.9-5.3 2.7v-7.6q3-1 5.9-1.5 3-0.5 5.8-0.5 6.1 0 9.5 2.7 3.4 2.7 3.4 7.6 0 2.8-1.4 5.2-1.5 2.4-6.1 6.5zm46.7-21.4l-11.5 16.8 11.9 17.5h-9.2l-8-11.7-7.9 11.7h-9.3l11.9-17.5-11.4-16.8h9.2l7.5 11.1 7.5-11.1z"/><path class="a" d="m52.2 507v-34.3h8.8v27.6h15.5v6.7zm41.9-20.4q-2.8 0-4.2 1.9-1.4 2-1.4 5.7 0 3.7 1.4 5.6 1.4 2 4.2 2 2.6 0 4.1-2 1.4-1.9 1.4-5.6 0-3.7-1.4-5.7-1.5-1.9-4.1-1.9zm0-5.9q6.6 0 10.3 3.6 3.7 3.5 3.7 9.9 0 6.3-3.7 9.9-3.7 3.6-10.3 3.6-6.7 0-10.5-3.6-3.7-3.6-3.7-9.9 0-6.4 3.7-9.9 3.8-3.6 10.5-3.6zm24.5 26.3l-6.8-25.7h8l4.3 17.7 4.4-17.7h6.8l4.3 17.5 4.4-17.5h8l-6.8 25.7h-9l-4.3-17.7-4.3 17.7zm64.5-19.1h3.7q2.8 0 4-1 1.2-1 1.2-3.4 0-2.3-1.2-3.4-1.2-1-4-1h-3.7zm2.5 6.1h-2.5v13h-8.9v-34.3h13.5q6.8 0 9.9 2.3 3.2 2.3 3.2 7.2 0 3.4-1.6 5.6-1.7 2.2-5 3.2 1.8 0.4 3.3 1.9 1.4 1.4 2.9 4.4l4.8 9.7h-9.4l-4.2-8.5q-1.3-2.6-2.6-3.5-1.3-1-3.4-1zm50.1 0.1v2.3h-19.2q0.3 2.9 2.1 4.4 1.8 1.4 5 1.4 2.6 0 5.3-0.7 2.7-0.8 5.6-2.4v6.3q-2.9 1.2-5.8 1.7-2.9 0.6-5.9 0.6-6.9 0-10.8-3.6-3.9-3.5-3.9-9.9 0-6.3 3.8-9.9 3.8-3.6 10.5-3.6 6 0 9.7 3.6 3.6 3.7 3.6 9.8zm-19.1-2.7h10.7q0-2.4-1.4-3.8-1.4-1.5-3.6-1.5-2.4 0-3.8 1.4-1.5 1.3-1.9 3.9zm45.4-9.3v6.3q-2.6-1.1-5.1-1.7-2.4-0.6-4.6-0.6-2.4 0-3.5 0.6-1.1 0.6-1.1 1.8 0 1 0.8 1.6 0.9 0.5 3.1 0.7l1.5 0.2q6.3 0.8 8.5 2.7 2.1 1.8 2.1 5.7 0 4.1-3 6.2-3 2.1-9 2.1-2.6 0-5.3-0.4-2.7-0.4-5.6-1.2v-6.3q2.5 1.2 5 1.8 2.6 0.6 5.3 0.6 2.4 0 3.6-0.7 1.2-0.6 1.2-1.9 0-1.1-0.8-1.7-0.8-0.5-3.3-0.8l-1.5-0.2q-5.5-0.7-7.7-2.5-2.2-1.9-2.2-5.7 0-4.1 2.8-6 2.8-2 8.6-2 2.3 0 4.8 0.3 2.5 0.4 5.4 1.1zm20.1 4.5q-2.7 0-4.1 1.9-1.5 2-1.5 5.7 0 3.7 1.5 5.7 1.4 1.9 4.1 1.9 2.7 0 4.1-1.9 1.5-2 1.5-5.7 0-3.7-1.5-5.7-1.4-1.9-4.1-1.9zm0-5.9q6.7 0 10.4 3.6 3.7 3.5 3.7 9.9 0 6.3-3.7 9.9-3.7 3.6-10.4 3.6-6.6 0-10.4-3.6-3.7-3.6-3.7-9.9 0-6.4 3.7-9.9 3.8-3.6 10.4-3.6zm20.1 26.3v-35.7h8.2v35.7zm15.8-10v-15.7h8.3v2.6q0 2.1 0 5.2 0 3.2 0 4.2 0 3.1 0.1 4.5 0.2 1.4 0.6 2 0.5 0.8 1.3 1.2 0.8 0.5 1.9 0.5 2.5 0 4-2 1.5-2 1.5-5.5v-12.7h8.2v25.7h-8.2v-3.7q-1.9 2.2-4 3.3-2 1.1-4.5 1.1-4.5 0-6.8-2.8-2.4-2.7-2.4-7.9zm34.5-23h8.3v7.3h8.4v5.9h-8.4v10.9q0 1.8 0.7 2.4 0.7 0.6 2.8 0.6h4.2v5.9h-7q-4.9 0-6.9-2-2.1-2.1-2.1-6.9v-10.9h-4v-5.9h4zm21.8 33v-25.7h8.2v25.7zm0-29v-6.7h8.2v6.7zm28.3 8.6q-2.7 0-4.2 1.9-1.4 2-1.4 5.7 0 3.7 1.4 5.6 1.5 2 4.2 2 2.7 0 4.1-2 1.5-1.9 1.5-5.6 0-3.7-1.5-5.7-1.4-1.9-4.1-1.9zm0-5.9q6.7 0 10.4 3.6 3.7 3.5 3.7 9.9 0 6.3-3.7 9.9-3.7 3.6-10.4 3.6-6.6 0-10.4-3.6-3.7-3.6-3.7-9.9 0-6.4 3.7-9.9 3.8-3.6 10.4-3.6zm45.9 10.7v15.6h-8.2v-2.5-9.5q0-3.3-0.2-4.6-0.1-1.2-0.5-1.8-0.5-0.8-1.3-1.3-0.8-0.4-1.9-0.4-2.6 0-4 2-1.5 2-1.5 5.5v12.6h-8.2v-25.7h8.2v3.8q1.9-2.3 3.9-3.3 2.1-1.1 4.7-1.1 4.4 0 6.7 2.7 2.3 2.7 2.3 8z"/><filter id="f0"><feFlood flood-color="#fdfdfd" flood-opacity="1" /><feBlend mode="normal" in2="SourceGraphic"/><feComposite in2="SourceAlpha" operator="in" /></filter><g filter="url(#f0)"><path class="b" d="m53 124c0-45.8 37.2-83 83-83h228c45.8 0 83 37.2 83 83v228c0 45.8-37.2 83-83 83h-228c-45.8 0-83-37.2-83-83z"/><path class="c" d="m269.7 149.3h68.9v69m-68.9 0l68.9-69m-88.6 177.3h-69c-10.9 0-19.7-8.8-19.7-19.7v-68.9c0-10.9 8.8-19.7 19.7-19.7h88.7v88.6c0 10.9-8.8 19.7-19.7 19.7z"/></g></svg>