<svg version="1.2" xmlns="http://www.w3.org/2000/svg" viewBox="0 0 500 600" width="490" height="588"><style>.a{fill:#fff}.b{fill:none;stroke:#000;stroke-width:20}.c{fill:none;stroke:#000;stroke-linecap:round;stroke-linejoin:round;stroke-width:20}</style><path class="a" d="m231.8 553.4v-14.4l-9.7 14.4zm-15.1-1.2l13.7-20.5h9.8v21.7h4.9v6.4h-4.9v6.2h-8.4v-6.2h-15.1zm65.4-20.5l-11.4 16.8 11.8 17.5h-9.2l-8-11.7-7.9 11.7h-9.3l11.9-17.5-11.4-16.8h9.2l7.5 11 7.5-11z"/><path class="a" d="m157.3 473.8v7.3q-2.8-1.3-5.5-1.9-2.7-0.7-5.1-0.7-3.1 0-4.6 0.9-1.6 0.9-1.6 2.7 0 1.4 1.1 2.2 1 0.7 3.7 1.3l3.7 0.7q5.8 1.2 8.2 3.5 2.4 2.4 2.4 6.7 0 5.6-3.4 8.4-3.4 2.8-10.3 2.8-3.2 0-6.5-0.7-3.3-0.6-6.6-1.8v-7.4q3.3 1.7 6.4 2.6 3 0.9 5.9 0.9 2.9 0 4.4-1 1.6-1 1.6-2.8 0-1.6-1.1-2.4-1-0.9-4.2-1.6l-3.4-0.8q-5.1-1.1-7.5-3.5-2.4-2.4-2.4-6.5 0-5.1 3.3-7.8 3.3-2.8 9.5-2.8 2.9 0 5.8 0.5 3 0.4 6.2 1.2zm10.4 0.2h8.2v7.3h8.5v5.9h-8.5v10.9q0 1.8 0.7 2.4 0.8 0.6 2.9 0.6h4.2v5.9h-7.1q-4.8 0-6.9-2-2-2.1-2-6.9v-10.9h-4.1v-5.9h4.1zm37.5 21.4h-4.3q-2.5 0-3.8 0.9-1.3 0.9-1.3 2.6 0 1.5 1 2.4 1.1 0.9 2.9 0.9 2.3 0 3.9-1.7 1.6-1.6 1.6-4.1zm8.3-3.1v14.6h-8.3v-3.8q-1.6 2.4-3.7 3.4-2.1 1.1-5 1.1-4 0-6.5-2.3-2.5-2.4-2.5-6.1 0-4.5 3.1-6.6 3.1-2.1 9.8-2.1h4.8v-0.7q0-1.9-1.5-2.8-1.6-0.9-4.8-0.9-2.7 0-4.9 0.5-2.3 0.5-4.3 1.6v-6.3q2.7-0.6 5.3-0.9 2.7-0.4 5.4-0.4 6.9 0 10 2.8 3.1 2.7 3.1 8.9zm33.5-1v15.6h-8.3v-2.5-9.4q0-3.4-0.1-4.6-0.2-1.3-0.5-1.9-0.5-0.8-1.4-1.2-0.8-0.5-1.8-0.5-2.6 0-4.1 2-1.4 2-1.4 5.5v12.6h-8.3v-25.7h8.3v3.8q1.8-2.2 3.9-3.3 2.1-1.1 4.6-1.1 4.5 0 6.8 2.7 2.3 2.8 2.3 8zm25.1-6.3v-13.8h8.3v35.7h-8.3v-3.7q-1.7 2.3-3.8 3.3-2 1.1-4.7 1.1-4.7 0-7.8-3.8-3-3.7-3-9.7 0-5.9 3-9.7 3.1-3.8 7.8-3.8 2.7 0 4.7 1.1 2.1 1.1 3.8 3.3zm-5.4 16.6q2.6 0 4-1.9 1.4-1.9 1.4-5.6 0-3.7-1.4-5.6-1.4-1.9-4-1.9-2.6 0-4 1.9-1.4 1.9-1.4 5.6 0 3.7 1.4 5.6 1.4 1.9 4 1.9zm37.3-6.2h-4.2q-2.6 0-3.9 0.8-1.3 0.9-1.3 2.6 0 1.6 1 2.5 1.1 0.8 3 0.8 2.3 0 3.9-1.6 1.5-1.7 1.5-4.2zm8.3-3.1v14.7h-8.3v-3.8q-1.6 2.3-3.7 3.4-2 1-5 1-4 0-6.5-2.3-2.5-2.3-2.5-6 0-4.6 3.1-6.7 3.1-2.1 9.8-2.1h4.8v-0.6q0-2-1.5-2.9-1.5-0.9-4.8-0.9-2.6 0-4.9 0.5-2.3 0.6-4.2 1.6v-6.2q2.6-0.7 5.3-1 2.6-0.3 5.3-0.3 6.9 0 10 2.7 3.1 2.7 3.1 8.9zm26.7-11.5l0.1 7.5q-1.1-0.5-2.2-0.8-1.1-0.2-2.1-0.2-3.2 0-4.9 2-1.7 2.1-1.7 5.8v11.9h-8.2v-25.7h8.2v4.2q1.6-2.5 3.6-3.7 2.1-1.1 4.9-1.1 0.5 0 0.9 0 0.5 0 1.4 0.1zm21.6 4.2v-13.7h8.3v35.7h-8.3v-3.7q-1.7 2.2-3.7 3.3-2.1 1-4.7 1-4.8 0-7.8-3.7-3.1-3.8-3.1-9.7 0-6 3.1-9.8 3-3.7 7.8-3.7 2.6 0 4.7 1 2 1.1 3.7 3.3zm-5.4 16.7q2.7 0 4-1.9 1.4-2 1.4-5.6 0-3.7-1.4-5.6-1.3-2-4-2-2.6 0-4 2-1.4 1.9-1.4 5.6 0 3.6 1.4 5.6 1.4 1.9 4 1.9z"/><filter id="f0"><feFlood flood-color="#fdfdfd" flood-opacity="1" /><feBlend mode="normal" in2="SourceGraphic"/><feComposite in2="SourceAlpha" operator="in" /></filter><g filter="url(#f0)"><path class="b" d="m53 124c0-45.8 37.2-83 83-83h228c45.8 0 83 37.2 83 83v228c0 45.8-37.2 83-83 83h-228c-45.8 0-83-37.2-83-83z"/><path class="c" d="m269.7 149.3h68.9v69m-68.9 0l68.9-69m-88.6 177.3h-69c-10.9 0-19.7-8.8-19.7-19.7v-68.9c0-10.9 8.8-19.7 19.7-19.7h88.7v88.6c0 10.9-8.8 19.7-19.7 19.7z"/></g></svg>