<svg version="1.2" xmlns="http://www.w3.org/2000/svg" viewBox="0 0 500 600" width="490" height="588"><style>.a{fill:#fff}.b{fill:none;stroke:#000;stroke-width:20}.c{fill:none;stroke:#000;stroke-linecap:round;stroke-linejoin:round;stroke-width:20}</style><path class="a" d="m124.6 494.3v-20.6h8.9v20.6q0 4.2 1.4 6.1 1.4 1.8 4.5 1.8 3.2 0 4.5-1.8 1.4-1.9 1.4-6.1v-20.6h8.9v20.6q0 7.3-3.7 10.8-3.6 3.6-11.1 3.6-7.5 0-11.1-3.6-3.7-3.5-3.7-10.8zm46.1 10v13.5h-8.3v-35.5h8.3v3.8q1.6-2.3 3.7-3.3 2.1-1.1 4.8-1.1 4.7 0 7.8 3.8 3 3.7 3 9.7 0 5.9-3 9.7-3.1 3.8-7.8 3.8-2.7 0-4.8-1.1-2.1-1.1-3.7-3.3zm5.4-16.7q-2.6 0-4 2-1.4 1.9-1.4 5.6 0 3.6 1.4 5.6 1.4 1.9 4 1.9 2.7 0 4-1.9 1.4-2 1.4-5.6 0-3.7-1.4-5.6-1.3-2-4-2zm40.1-4.5v6.2q-2.7-1.1-5.1-1.6-2.5-0.6-4.7-0.6-2.3 0-3.5 0.6-1.1 0.6-1.1 1.8 0 1 0.9 1.5 0.8 0.6 3.1 0.8l1.4 0.2q6.3 0.8 8.5 2.7 2.2 1.8 2.2 5.7 0 4.1-3 6.2-3.1 2.1-9.1 2.1-2.5 0-5.3-0.4-2.7-0.4-5.5-1.2v-6.3q2.4 1.2 5 1.8 2.6 0.6 5.2 0.6 2.4 0 3.7-0.7 1.2-0.6 1.2-1.9 0-1.1-0.9-1.7-0.8-0.5-3.3-0.8l-1.4-0.2q-5.5-0.7-7.7-2.5-2.2-1.9-2.2-5.7 0-4.1 2.8-6 2.8-2 8.5-2 2.3 0 4.8 0.3 2.5 0.4 5.5 1.1zm28.6 0v6.7q-1.7-1.1-3.4-1.7-1.6-0.5-3.4-0.5-3.5 0-5.4 2-1.9 2-1.9 5.6 0 3.6 1.9 5.6 1.9 2 5.4 2 1.9 0 3.6-0.6 1.8-0.6 3.2-1.7v6.7q-1.9 0.8-3.9 1.1-2 0.4-4 0.4-6.9 0-10.8-3.6-4-3.6-4-9.9 0-6.4 4-9.9 3.9-3.6 10.8-3.6 2 0 4 0.3 2 0.4 3.9 1.1zm22.9 13.3h-4.3q-2.5 0-3.8 0.9-1.3 0.9-1.3 2.6 0 1.5 1 2.4 1.1 0.9 2.9 0.9 2.3 0 3.9-1.6 1.6-1.7 1.6-4.2zm8.3-3.1v14.6h-8.3v-3.8q-1.6 2.4-3.7 3.5-2.1 1-5 1-4 0-6.5-2.3-2.5-2.4-2.5-6.1 0-4.5 3.1-6.6 3.1-2.1 9.8-2.1h4.8v-0.7q0-1.9-1.5-2.8-1.6-0.9-4.8-0.9-2.7 0-4.9 0.5-2.3 0.5-4.3 1.6v-6.3q2.7-0.6 5.3-0.9 2.7-0.4 5.4-0.4 6.9 0 10 2.8 3.1 2.7 3.1 8.9zm7.6 14.6v-35.7h8.2v35.7zm41.8-12.9v2.4h-19.2q0.3 2.9 2.1 4.3 1.8 1.4 5 1.4 2.6 0 5.3-0.7 2.7-0.8 5.6-2.4v6.4q-2.9 1.1-5.8 1.7-2.9 0.5-5.9 0.5-6.9 0-10.8-3.5-3.9-3.6-3.9-10 0-6.3 3.8-9.9 3.8-3.6 10.5-3.6 6 0 9.7 3.7 3.6 3.6 3.6 9.7zm-19.1-2.7h10.7q0-2.4-1.4-3.8-1.4-1.4-3.6-1.4-2.4 0-3.8 1.3-1.5 1.4-1.9 3.9zm42.8-6.3v-13.8h8.3v35.7h-8.3v-3.7q-1.7 2.3-3.7 3.4-2.1 1-4.7 1-4.8 0-7.9-3.8-3-3.7-3-9.7 0-5.9 3-9.7 3.1-3.8 7.9-3.8 2.6 0 4.7 1.1 2 1.1 3.7 3.3zm-5.4 16.6q2.6 0 4-1.9 1.4-1.9 1.4-5.6 0-3.7-1.4-5.6-1.4-1.9-4-1.9-2.6 0-4 1.9-1.4 1.9-1.4 5.6 0 3.7 1.4 5.6 1.4 1.9 4 1.9zm-315.1 61.3v-34.2h14.6q6.6 0 10.1 2.9 3.5 2.9 3.5 8.3 0 5.3-3.5 8.3-3.5 2.9-10.1 2.9h-5.8v11.8zm13.7-27.8h-4.9v9.6h4.9q2.6 0 4-1.3 1.4-1.3 1.4-3.5 0-2.3-1.4-3.6-1.4-1.2-4-1.2zm46 14.9v2.4h-19.2q0.3 2.9 2.1 4.3 1.8 1.4 5 1.4 2.6 0 5.3-0.7 2.8-0.8 5.6-2.4v6.4q-2.9 1.1-5.8 1.7-2.9 0.5-5.8 0.5-7 0-10.9-3.5-3.8-3.6-3.8-10 0-6.3 3.8-9.9 3.8-3.6 10.4-3.6 6.1 0 9.7 3.7 3.6 3.6 3.6 9.7zm-19.1-2.7h10.7q0-2.4-1.4-3.8-1.3-1.4-3.5-1.4-2.4 0-3.9 1.3-1.5 1.4-1.9 3.9zm44.4-10.5l0.1 7.4q-1.1-0.5-2.2-0.7-1.1-0.2-2.1-0.2-3.2 0-4.9 2-1.7 2-1.7 5.8v11.8h-8.2v-25.7h8.2v4.3q1.6-2.6 3.6-3.7 2.1-1.2 4.9-1.2 0.5 0 0.9 0.1 0.5 0 1.4 0.1zm14.8-9.6h6.3v5.4h-4.6q-1.7 0-2.4 0.7-0.7 0.6-0.7 2.1v1.8h7v5.9h-7v19.8h-8.2v-19.8h-4.1v-5.9h4.1v-1.8q0-4.2 2.3-6.1 2.4-2.1 7.3-2.1zm22 15.3q-2.7 0-4.1 2-1.5 1.9-1.5 5.6 0 3.7 1.5 5.7 1.4 1.9 4.1 1.9 2.7 0 4.1-1.9 1.5-2 1.5-5.7 0-3.7-1.5-5.6-1.4-2-4.1-2zm0-5.9q6.7 0 10.4 3.6 3.7 3.6 3.7 9.9 0 6.3-3.7 9.9-3.7 3.6-10.4 3.6-6.6 0-10.4-3.6-3.7-3.6-3.7-9.9 0-6.3 3.7-9.9 3.8-3.6 10.4-3.6zm39.2 0.2v7.4q-1.1-0.5-2.2-0.7-1-0.2-2.1-0.2-3.2 0-4.9 2-1.7 2-1.7 5.8v11.8h-8.2v-25.7h8.2v4.3q1.6-2.6 3.6-3.7 2.1-1.2 5-1.2 0.4 0 0.9 0.1 0.4 0 1.4 0.1zm27.9 4.7q1.5-2.4 3.7-3.6 2.1-1.3 4.7-1.3 4.4 0 6.8 2.7 2.3 2.8 2.3 8v15.6h-8.3v-13.4q0-0.3 0-0.6 0.1-0.3 0.1-0.9 0-2.7-0.8-3.9-0.9-1.3-2.6-1.3-2.4 0-3.7 1.9-1.2 2-1.3 5.6v12.6h-8.2v-13.4q0-4.2-0.8-5.4-0.7-1.3-2.6-1.3-2.4 0-3.6 2-1.3 1.9-1.3 5.5v12.6h-8.3v-25.7h8.3v3.8q1.5-2.2 3.4-3.3 2-1.1 4.4-1.1 2.6 0 4.7 1.3 2 1.3 3.1 3.6zm50.8 8.5v2.4h-19.2q0.3 2.9 2.1 4.3 1.8 1.4 5 1.4 2.6 0 5.3-0.7 2.7-0.8 5.6-2.4v6.4q-2.9 1.1-5.9 1.7-2.9 0.5-5.8 0.5-7 0-10.8-3.5-3.9-3.6-3.9-10 0-6.3 3.8-9.9 3.8-3.6 10.5-3.6 6 0 9.6 3.7 3.7 3.6 3.7 9.7zm-19.1-2.7h10.6q0-2.4-1.3-3.8-1.4-1.4-3.6-1.4-2.4 0-3.9 1.3-1.5 1.4-1.8 3.9zm44.4-10.5v7.4q-1.1-0.5-2.2-0.7-1-0.2-2.1-0.2-3.2 0-4.9 2-1.7 2-1.7 5.8v11.8h-8.2v-25.7h8.2v4.3q1.6-2.6 3.7-3.7 2-1.2 4.9-1.2 0.4 0 0.9 0.1 0.5 0 1.4 0.1zm20.8 26.1v-34.2h8.9v34.2zm40.9-21.4q1.6-2.4 3.7-3.6 2.2-1.3 4.7-1.3 4.5 0 6.8 2.7 2.3 2.8 2.3 8v15.6h-8.3v-13.4q0-0.3 0-0.6 0.1-0.3 0.1-0.9 0-2.7-0.8-3.9-0.8-1.3-2.6-1.3-2.4 0-3.7 1.9-1.2 2-1.3 5.6v12.6h-8.2v-13.4q0-4.2-0.8-5.4-0.7-1.3-2.6-1.3-2.3 0-3.6 2-1.3 1.9-1.3 5.5v12.6h-8.3v-25.7h8.3v3.8q1.5-2.2 3.5-3.3 1.9-1.1 4.3-1.1 2.7 0 4.7 1.3 2 1.3 3.1 3.6zm40.9 9.9h-4.2q-2.6 0-3.9 0.8-1.3 0.9-1.3 2.6 0 1.6 1 2.5 1.1 0.8 3 0.8 2.3 0 3.9-1.6 1.5-1.7 1.5-4.2zm8.3-3.1v14.7h-8.3v-3.8q-1.6 2.3-3.7 3.4-2 1-5 1-4 0-6.5-2.3-2.5-2.3-2.5-6 0-4.6 3.1-6.7 3.1-2.1 9.8-2.1h4.8v-0.6q0-2-1.5-2.9-1.5-0.9-4.8-0.9-2.6 0-4.9 0.5-2.3 0.6-4.2 1.6v-6.2q2.6-0.7 5.3-1 2.6-0.3 5.3-0.3 7 0 10 2.7 3.1 2.7 3.1 8.9zm25.2 12.1v-1.8q-1.7 2.3-3.8 3.3-2 1.1-4.7 1.1-4.7 0-7.8-3.7-3.1-3.7-3.1-9.5 0-5.7 3.1-9.4 3.1-3.7 7.8-3.7 2.7 0 4.7 1.1 2.1 1 3.8 3.3v-3.8h8.2v23.1q0 6.2-3.9 9.5-3.9 3.2-11.3 3.2-2.5 0-4.7-0.3-2.3-0.4-4.5-1.2v-6.4q2.1 1.3 4.2 1.9 2.1 0.6 4.2 0.6 4 0 5.9-1.8 1.9-1.7 1.9-5.5zm-5.5-17.8q-2.5 0-3.9 1.9-1.5 1.9-1.5 5.3 0 3.6 1.4 5.4 1.4 1.8 4 1.8 2.6 0 4-1.9 1.5-1.8 1.5-5.3 0-3.4-1.5-5.3-1.4-1.9-4-1.9zm47.3 7.5v2.3h-19.2q0.3 2.9 2 4.3 1.8 1.5 5.1 1.5 2.5 0 5.3-0.8 2.7-0.8 5.6-2.3v6.3q-3 1.1-5.9 1.7-2.9 0.5-5.8 0.5-7 0-10.9-3.5-3.8-3.5-3.8-9.9 0-6.3 3.8-9.9 3.8-3.6 10.4-3.6 6.1 0 9.7 3.6 3.7 3.7 3.7 9.8zm-19.1-2.8h10.6q0-2.3-1.4-3.7-1.3-1.5-3.5-1.5-2.4 0-3.9 1.4-1.5 1.3-1.8 3.8z"/><filter id="f0"><feFlood flood-color="#fdfdfd" flood-opacity="1" /><feBlend mode="normal" in2="SourceGraphic"/><feComposite in2="SourceAlpha" operator="in" /></filter><g filter="url(#f0)"><path class="b" d="m53 124c0-45.8 37.2-83 83-83h228c45.8 0 83 37.2 83 83v228c0 45.8-37.2 83-83 83h-228c-45.8 0-83-37.2-83-83z"/><path class="c" d="m269.7 149.3h68.9v69m-68.9 0l68.9-69m-88.6 177.3h-69c-10.9 0-19.7-8.8-19.7-19.7v-68.9c0-10.9 8.8-19.7 19.7-19.7h88.7v88.6c0 10.9-8.8 19.7-19.7 19.7z"/></g></svg>