<svg version="1.2" xmlns="http://www.w3.org/2000/svg" viewBox="0 0 500 600" width="490" height="588"><style>.a{fill:#fff}.b{fill:#f8f8f8}.c{fill:none;stroke:#000;stroke-width:20}.d{fill:none;stroke:#000;stroke-linecap:round;stroke-linejoin:round;stroke-width:20}</style><path class="a" d="m211.9 548.8q0-6.4-1.2-9-1.2-2.6-4.1-2.6-2.8 0-4 2.6-1.3 2.6-1.3 9 0 6.5 1.3 9.2 1.2 2.7 4 2.7 2.8 0 4.1-2.7 1.2-2.7 1.2-9.2zm8.8 0.1q0 8.5-3.7 13.2-3.6 4.6-10.4 4.6-6.8 0-10.4-4.6-3.7-4.7-3.7-13.2 0-8.5 3.7-13.1 3.6-4.7 10.4-4.7 6.8 0 10.4 4.7 3.7 4.6 3.7 13.1zm7.1 17.1v-8.9h8.2v8.9zm18.1-15v-19.3h21.9v6.5h-14.9v5.3q1-0.2 2-0.4 1-0.1 2.1-0.1 6.3 0 9.8 3.1 3.5 3.1 3.5 8.7 0 5.6-3.8 8.7-3.8 3.2-10.6 3.2-2.9 0-5.7-0.6-2.9-0.6-5.7-1.7v-7q2.8 1.6 5.3 2.4 2.5 0.9 4.7 0.9 3.3 0 5.1-1.6 1.9-1.6 1.9-4.3 0-2.7-1.9-4.2-1.8-1.6-5.1-1.6-1.9 0-4 0.5-2.2 0.5-4.6 1.5zm62.5-19.3l-11.4 16.8 11.9 17.5h-9.2l-8-11.7-8 11.7h-9.2l11.9-17.5-11.5-16.8h9.3l7.5 11.1 7.4-11.1z"/><path class="b" d="m34 507l-12.7-34.3h8.9l9.1 25.3 9.1-25.3h8.9l-12.7 34.3zm50.5-12.9v2.3h-19.3q0.3 2.9 2.1 4.4 1.8 1.4 5 1.4 2.6 0 5.3-0.8 2.8-0.7 5.6-2.3v6.3q-2.9 1.1-5.8 1.7-2.9 0.6-5.8 0.6-7 0-10.9-3.6-3.8-3.5-3.8-9.9 0-6.3 3.8-9.9 3.8-3.6 10.4-3.6 6.1 0 9.7 3.6 3.7 3.7 3.7 9.8zm-19.2-2.8h10.7q0-2.3-1.4-3.7-1.3-1.5-3.5-1.5-2.4 0-3.9 1.4-1.5 1.3-1.9 3.8zm44.4-10.4l0.1 7.4q-1.1-0.5-2.2-0.7-1-0.3-2.1-0.3-3.2 0-4.9 2.1-1.7 2-1.7 5.8v11.8h-8.2v-25.7h8.2v4.2q1.6-2.5 3.6-3.7 2.1-1.1 4.9-1.1 0.5 0 0.9 0 0.5 0 1.4 0.2zm12.2 27.1l-11.4-26.7h8.2l6.9 17.4 5.9-17.4h8.2l-10.8 28.1q-1.6 4.3-3.8 6-2.2 1.7-5.7 1.7h-4.8v-5.3h2.6q2.1 0 3-0.7 1-0.7 1.5-2.4zm66.5-10v7.1q-2.5 1.3-5.1 1.9-2.7 0.7-5.5 0.7-8.6 0-13.6-4.8-5-4.8-5-13 0-8.2 5-13 5-4.8 13.6-4.8 2.8 0 5.5 0.7 2.6 0.6 5.1 1.9v7.1q-2.5-1.7-4.9-2.5-2.4-0.8-5-0.8-4.7 0-7.4 3.1-2.8 3-2.8 8.3 0 5.3 2.8 8.3 2.7 3.1 7.4 3.1 2.6 0 5-0.8 2.4-0.8 4.9-2.5zm19.1-11.4q-2.7 0-4.1 1.9-1.5 2-1.5 5.7 0 3.7 1.5 5.7 1.4 1.9 4.1 1.9 2.7 0 4.2-1.9 1.4-2 1.4-5.7 0-3.7-1.4-5.7-1.5-1.9-4.2-1.9zm0-5.9q6.7 0 10.4 3.6 3.7 3.5 3.7 9.9 0 6.3-3.7 9.9-3.7 3.6-10.4 3.6-6.6 0-10.4-3.6-3.7-3.6-3.7-9.9 0-6.4 3.7-9.9 3.8-3.6 10.4-3.6zm43.9 4.9q1.6-2.4 3.7-3.6 2.2-1.3 4.7-1.3 4.5 0 6.8 2.7 2.3 2.8 2.3 8v15.6h-8.3v-13.4q0.1-0.3 0.1-0.6 0-0.3 0-0.9 0-2.8-0.8-4-0.8-1.2-2.6-1.2-2.3 0-3.6 1.9-1.3 1.9-1.3 5.6v12.6h-8.3v-13.4q0-4.3-0.7-5.5-0.8-1.2-2.6-1.2-2.4 0-3.7 1.9-1.3 2-1.3 5.6v12.6h-8.2v-25.7h8.2v3.8q1.5-2.2 3.5-3.3 2-1.1 4.3-1.1 2.7 0 4.7 1.3 2.1 1.3 3.1 3.6zm33.4 17.7v13.5h-8.2v-35.5h8.2v3.8q1.7-2.3 3.8-3.3 2-1.1 4.7-1.1 4.8 0 7.8 3.8 3.1 3.7 3.1 9.7 0 5.9-3.1 9.7-3 3.8-7.8 3.8-2.7 0-4.7-1.1-2.1-1.1-3.8-3.3zm5.5-16.6q-2.7 0-4.1 1.9-1.4 1.9-1.4 5.6 0 3.6 1.4 5.6 1.4 1.9 4.1 1.9 2.6 0 4-1.9 1.4-1.9 1.4-5.6 0-3.7-1.4-5.6-1.4-1.9-4-1.9zm39-5.8v7.4q-1.1-0.5-2.1-0.7-1.1-0.3-2.2-0.3-3.1 0-4.9 2.1-1.7 2-1.7 5.8v11.8h-8.2v-25.7h8.2v4.2q1.6-2.5 3.7-3.6 2-1.2 4.9-1.2 0.4 0 0.9 0 0.5 0.1 1.4 0.2zm29.8 13.2v2.3h-19.3q0.3 2.9 2.1 4.4 1.8 1.4 5 1.4 2.6 0 5.3-0.7 2.8-0.8 5.6-2.4v6.4q-2.9 1.1-5.8 1.6-2.9 0.6-5.8 0.6-7 0-10.9-3.6-3.8-3.5-3.8-9.9 0-6.3 3.8-9.9 3.8-3.6 10.4-3.6 6.1 0 9.7 3.6 3.7 3.7 3.7 9.8zm-19.2-2.7h10.7q0-2.4-1.4-3.8-1.3-1.4-3.5-1.4-2.4 0-3.9 1.3-1.5 1.3-1.9 3.9zm45.5-9.3v6.3q-2.7-1.1-5.1-1.7-2.5-0.5-4.7-0.5-2.3 0-3.5 0.5-1.1 0.6-1.1 1.8 0 1 0.9 1.6 0.8 0.5 3.1 0.7l1.4 0.2q6.3 0.8 8.5 2.7 2.2 1.8 2.2 5.7 0 4.1-3.1 6.2-3 2.1-9 2.1-2.5 0-5.3-0.4-2.7-0.4-5.6-1.2v-6.3q2.5 1.2 5.1 1.8 2.6 0.6 5.2 0.6 2.4 0 3.7-0.7 1.2-0.6 1.2-1.9 0-1.1-0.9-1.7-0.8-0.5-3.3-0.8l-1.5-0.2q-5.4-0.7-7.6-2.5-2.2-1.9-2.2-5.7 0-4.1 2.8-6 2.8-2 8.5-2 2.3 0 4.8 0.3 2.5 0.4 5.5 1.1zm27.9 0v6.3q-2.6-1.1-5.1-1.7-2.4-0.5-4.6-0.5-2.3 0-3.5 0.5-1.1 0.6-1.1 1.8 0 1 0.8 1.6 0.9 0.5 3.1 0.7l1.5 0.2q6.3 0.8 8.5 2.7 2.2 1.8 2.2 5.7 0 4.1-3.1 6.2-3 2.1-9 2.1-2.6 0-5.3-0.4-2.7-0.4-5.6-1.2v-6.3q2.5 1.2 5 1.8 2.6 0.6 5.3 0.6 2.4 0 3.6-0.7 1.2-0.6 1.2-1.9 0-1.1-0.8-1.7-0.8-0.5-3.3-0.8l-1.5-0.2q-5.5-0.7-7.7-2.5-2.2-1.9-2.2-5.7 0-4.1 2.8-6 2.8-2 8.6-2 2.3 0 4.8 0.3 2.5 0.4 5.4 1.1zm33.6 12v2.3h-19.2q0.3 2.9 2.1 4.4 1.8 1.4 5 1.4 2.6 0 5.3-0.7 2.7-0.8 5.6-2.4v6.4q-3 1.1-5.9 1.6-2.9 0.6-5.8 0.6-7 0-10.8-3.6-3.9-3.5-3.9-9.9 0-6.3 3.8-9.9 3.8-3.6 10.4-3.6 6.1 0 9.7 3.6 3.7 3.7 3.7 9.8zm-19.1-2.7h10.6q0-2.4-1.3-3.8-1.4-1.4-3.6-1.4-2.4 0-3.9 1.3-1.5 1.3-1.8 3.9zm42.8-6.3v-13.8h8.2v35.7h-8.2v-3.7q-1.7 2.3-3.8 3.3-2 1.1-4.7 1.1-4.7 0-7.8-3.8-3-3.8-3-9.7 0-6 3-9.7 3.1-3.8 7.8-3.8 2.7 0 4.7 1.1 2.1 1 3.8 3.3zm-5.4 16.6q2.6 0 4-1.9 1.4-1.9 1.4-5.6 0-3.7-1.4-5.6-1.4-1.9-4-1.9-2.6 0-4 1.9-1.4 1.9-1.4 5.6 0 3.7 1.4 5.6 1.4 1.9 4 1.9z"/><filter id="f0"><feFlood flood-color="#fdfdfd" flood-opacity="1" /><feBlend mode="normal" in2="SourceGraphic"/><feComposite in2="SourceAlpha" operator="in" /></filter><g filter="url(#f0)"><path class="c" d="m53 124c0-45.8 37.2-83 83-83h228c45.8 0 83 37.2 83 83v228c0 45.8-37.2 83-83 83h-228c-45.8 0-83-37.2-83-83z"/><path class="d" d="m269.7 149.3h68.9v69m-68.9 0l68.9-69m-88.6 177.3h-69c-10.9 0-19.7-8.8-19.7-19.7v-68.9c0-10.9 8.8-19.7 19.7-19.7h88.7v88.6c0 10.9-8.8 19.7-19.7 19.7z"/></g></svg>